#!OML:ASF E:\acrobat2\Project_11_07_03\Capture day 1\Session 1\Acrobat.ASF
:FULLY-SPECIFIED
:DEGREES
321
root 5.765 18.0993 26.5927 1.38986 -81.7958 363.405
lowerback -3.92604 0.799477 -1.06429
upperback -1.25071 1.10143 -1.91337
thorax 0.93463 0.537141 -1.31393
lowerneck 0.424194 -3.4691 -0.240193
upperneck 4.43138 -4.90256 5.19364
head 1.45587 -2.40384 1.60592
rclavicle -9.73424e-015 2.22639e-014
rhumerus -39.6642 -11.8404 -79.1607
rradius 30.4707
rwrist -1.97478
rhand -6.59248 -39.0843
rfingers 7.12502
rthumb 19.2627 -68.1503
lclavicle -9.73424e-015 2.22639e-014
lhumerus -33.6395 5.82719 75.0078
lradius 20.6805
lwrist 0.114934
lhand -0.463145 -15.7532
lfingers 7.12502
lthumb 25.1467 12.6105
rfemur 6.98136 11.1916 14.8999
rtibia -2.07003
rfoot -23.6306 -27.9023
rtoes 11.4983
lfemur 181.914 183.465 167.491
ltibia -2.05158
lfoot -5.78645 -1.05879
ltoes 33.9112
322
root 5.79682 18.1011 26.553 3.02463 -81.4939 361.767
lowerback -3.90649 0.750629 -0.835272
upperback -1.33239 1.02517 -1.83929
thorax 0.8415 0.499281 -1.37074
lowerneck 0.324756 -3.47787 -0.594319
upperneck 4.77226 -4.94203 5.40567
head 1.60122 -2.42006 1.73212
rclavicle -2.71341e-014 2.06736e-014
rhumerus -40.0151 -12.815 -78.5612
rradius 29.9597
rwrist -1.7603
rhand -5.7367 -39.7666
rfingers 7.12502
rthumb 20.0854 -68.7484
lclavicle -2.71341e-014 2.06736e-014
lhumerus -33.0935 7.48846 74.5756
lradius 21.0059
lwrist 0.529844
lhand -1.62062 -14.7526
lfingers 7.12502
lthumb 24.0372 13.7622
rfemur 6.8374 11.6371 15.4189
rtibia -1.94447
rfoot -24.6172 -27.8729
rtoes 15.2807
lfemur 181.489 183.27 167.962
ltibia -1.69158
lfoot -5.43506 -1.20773
ltoes 33.2163
323
root 5.83006 18.1001 26.5153 3.75034 -81.2847 360.893
lowerback -3.72116 0.669389 -0.751856
upperback -1.3401 0.910868 -1.73564
thorax 0.727641 0.443 -1.31854
lowerneck 0.184013 -3.40813 -0.832921
upperneck 4.96249 -4.85427 5.37818
head 1.69019 -2.37509 1.76359
rclavicle 4.2307e-014 -7.95139e-015
rhumerus -40.398 -13.2058 -78.2424
rradius 29.9909
rwrist -1.81599
rhand -4.74118 -40.6027
rfingers 7.12502
rthumb 21.0421 -69.4811
lclavicle 4.2307e-014 -7.95139e-015
lhumerus -32.6873 8.33544 74.6729
lradius 21.7838
lwrist 2.33379
lhand -2.81083 -13.7417
lfingers 7.12502
lthumb 22.8955 14.919
rfemur 6.74118 11.0591 15.6387
rtibia -1.71873
rfoot -23.4353 -28.1013
rtoes 12.256
lfemur 181.347 183.43 168.207
ltibia -1.48741
lfoot -5.34423 -1.11321
ltoes 32.8249
324
root 5.86106 18.101 26.488 3.28741 -81.1315 361.125
lowerback -3.50006 0.586663 -0.707471
upperback -1.25656 0.798417 -1.72745
thorax 0.688219 0.387649 -1.34159
lowerneck -0.0512004 -3.37138 -0.845655
upperneck 5.06259 -4.79829 5.17729
head 1.75534 -2.34435 1.69795
rclavicle -2.90629e-014 -1.98785e-015
rhumerus -40.3158 -12.7209 -78.5727
rradius 29.442
rwrist -2.58532
rhand -4.57238 -40.5719
rfingers 7.12502
rthumb 21.2042 -69.4322
lclavicle -2.90629e-014 -1.98785e-015
lhumerus -32.2169 8.14838 75.1288
lradius 22.6888
lwrist 4.57135
lhand -4.0143 -13.1096
lfingers 7.12502
lthumb 21.7402 15.6895
rfemur 6.83753 10.1999 15.5053
rtibia -1.73316
rfoot -22.9197 -27.4764
rtoes 12.4833
lfemur 181.385 183.481 168.141
ltibia -1.31285
lfoot -5.2539 -1.16947
ltoes 32.048
325
root 5.88526 18.0946 26.4452 3.94074 -81.3342 360.274
lowerback -3.36545 0.628644 -0.768367
upperback -1.15346 0.857467 -1.63822
thorax 0.717464 0.418497 -1.21427
lowerneck -0.236597 -3.36487 -0.734115
upperneck 4.92065 -4.76848 4.93022
head 1.72945 -2.32912 1.59694
rclavicle 2.70347e-014 -8.34896e-015
rhumerus -40.264 -12.2413 -78.9345
rradius 29.19
rwrist -2.85566
rhand -4.66227 -40.2259
rfingers 7.12502
rthumb 21.1179 -69.0959
lclavicle 2.70347e-014 -8.34896e-015
lhumerus -31.6533 7.10653 75.8448
lradius 23.5794
lwrist 7.07327
lhand -4.89968 -12.8837
lfingers 7.12502
lthumb 20.8898 16.0115
rfemur 6.9971 10.7709 15.8753
rtibia -1.94793
rfoot -23.6948 -27.3992
rtoes 15.2635
lfemur 181.49 183.606 168.445
ltibia -1.23429
lfoot -5.4702 -0.967789
ltoes 31.4816
326
root 5.91663 18.0997 26.4316 -0.879071 -81.3803 365.174
lowerback -3.37536 0.624793 -1.28589
upperback -1.13874 0.867705 -1.91393
thorax 0.734625 0.421654 -1.20645
lowerneck -0.190069 -3.34856 -0.54027
upperneck 4.55506 -4.71497 4.66519
head 1.58771 -2.30748 1.48126
rclavicle 4.1869e-015 -2.14687e-014
rhumerus -40.2671 -11.5766 -79.3924
rradius 29.138
rwrist -2.63068
rhand -4.48718 -39.9746
rfingers 7.12502
rthumb 21.2861 -68.8257
lclavicle 4.1869e-015 -2.14687e-014
lhumerus -31.2345 5.57017 76.6266
lradius 24.5713
lwrist 9.56922
lhand -5.51176 -13.255
lfingers 7.12502
lthumb 20.3016 15.7039
rfemur 6.84508 9.72431 14.7262
rtibia -2.0572
rfoot -22.7785 -26.6752
rtoes 14.2206
lfemur 181.299 183.885 167.438
ltibia -1.05531
lfoot -5.76087 -0.783946
ltoes 31.3979
327
root 5.93628 18.0984 26.4015 -2.61712 -81.5964 366.892
lowerback -3.43112 0.70212 -1.45264
upperback -1.10795 0.977719 -2.05633
thorax 0.798266 0.47543 -1.2539
lowerneck 0.00384915 -3.37346 -0.48421
upperneck 4.15574 -4.72569 4.63452
head 1.42424 -2.31983 1.46629
rclavicle 4.60187e-014 3.18055e-015
rhumerus -40.0031 -10.7772 -80.0144
rradius 28.5374
rwrist -2.16655
rhand -4.70038 -39.2912
rfingers 7.12502
rthumb 21.0813 -68.1653
lclavicle 4.60187e-014 3.18055e-015
lhumerus -30.9711 3.95465 77.3414
lradius 25.6811
lwrist 11.4926
lhand -5.71735 -13.7956
lfingers 7.12502
lthumb 20.104 15.1843
rfemur 6.78625 9.52933 14.4259
rtibia -2.13521
rfoot -22.41 -26.2881
rtoes 14.45
lfemur 181.287 183.934 167.257
ltibia -1.02854
lfoot -5.95096 -0.624524
ltoes 31.6039
328
root 5.94844 18.0954 26.3693 -3.49351 -81.8977 367.754
lowerback -3.53771 0.77885 -1.63841
upperback -1.09678 1.08901 -2.04716
thorax 0.866862 0.530514 -1.13432
lowerneck 0.153079 -3.34988 -0.549766
upperneck 3.92452 -4.67893 4.60788
head 1.32471 -2.30232 1.4732
rclavicle 1.64681e-014 -3.18055e-015
rhumerus -39.6659 -10.3956 -80.194
rradius 27.7259
rwrist -0.804339
rhand -4.49348 -38.6609
rfingers 7.12502
rthumb 21.28 -67.5127
lclavicle 1.64681e-014 -3.18055e-015
lhumerus -30.7193 2.88959 77.9772
lradius 26.5987
lwrist 12.3846
lhand -5.67227 -14.2256
lfingers 7.12502
lthumb 20.1474 14.7496
rfemur 6.72617 9.54936 14.354
rtibia -2.2229
rfoot -22.0419 -26.1133
rtoes 14.3683
lfemur 181.356 183.884 167.307
ltibia -1.1477
lfoot -6.03521 -0.443746
ltoes 32.1959
329
root 5.95843 18.0957 26.3421 -4.46994 -82.1934 368.785
lowerback -3.72162 0.794219 -1.89496
upperback -1.12794 1.12203 -1.98055
thorax 0.931622 0.546327 -0.918518
lowerneck 0.136536 -3.22638 -0.463827
upperneck 4.03513 -4.5078 4.34241
head 1.34723 -2.2169 1.37564
rclavicle -1.18153e-014 -5.56597e-015
rhumerus -39.9868 -9.72285 -80.3061
rradius 28.2978
rwrist 0.666636
rhand -3.38653 -39.2298
rfingers 7.12502
rthumb 22.343 -67.9579
lclavicle -1.18153e-014 -5.56597e-015
lhumerus -30.6825 1.8354 78.5716
lradius 27.6464
lwrist 12.9156
lhand -5.42062 -14.6328
lfingers 7.12502
lthumb 20.3892 14.3168
rfemur 6.60653 9.56203 14.2524
rtibia -2.3124
rfoot -21.6663 -26.0587
rtoes 13.741
lfemur 181.354 183.704 167.329
ltibia -1.25149
lfoot -6.08525 -0.276745
ltoes 31.4695
330
root 5.96549 18.0982 26.3175 -5.06277 -82.5447 369.412
lowerback -3.95516 0.784687 -2.03468
upperback -1.16088 1.12004 -1.92182
thorax 1.02445 0.544449 -0.77704
lowerneck 0.026992 -3.11396 -0.42711
upperneck 4.36787 -4.36685 4.17619
head 1.46213 -2.14304 1.31564
rclavicle -8.66577e-015 3.49861e-014
rhumerus -39.8351 -9.37972 -80.3271
rradius 27.8555
rwrist 2.19941
rhand -3.21586 -39.2895
rfingers 7.12502
rthumb 22.5068 -67.9979
lclavicle -8.66577e-015 3.49861e-014
lhumerus -30.9291 0.585982 79.1185
lradius 28.9359
lwrist 13.3406
lhand -5.13882 -15.0797
lfingers 7.12502
lthumb 20.66 13.8407
rfemur 6.50579 9.81417 14.285
rtibia -2.36987
rfoot -21.7997 -25.9347
rtoes 14.3076
lfemur 181.429 183.563 167.422
ltibia -1.39975
lfoot -6.16845 -0.072461
ltoes 30.6441
331
root 5.9702 18.1003 26.2972 -4.55388 -82.9431 368.929
lowerback -4.26328 0.811349 -1.87952
upperback -1.16269 1.15897 -1.90391
thorax 1.19755 0.562963 -0.839091
lowerneck -0.108723 -3.04138 -0.436735
upperneck 4.71552 -4.28741 4.17247
head 1.59477 -2.09852 1.31421
rclavicle 1.21274e-014 -1.07344e-014
rhumerus -39.8585 -9.58084 -80.2496
rradius 27.6545
rwrist 3.33694
rhand -3.69512 -39.0397
rfingers 7.12502
rthumb 22.0467 -67.8031
lclavicle 1.21274e-014 -1.07344e-014
lhumerus -31.0645 -0.484866 79.5567
lradius 29.8892
lwrist 13.2835
lhand -5.00749 -15.5931
lfingers 7.12502
lthumb 20.7862 13.3135
rfemur 6.39812 10.2631 14.5337
rtibia -2.40882
rfoot -21.9864 -25.9083
rtoes 15.2971
lfemur 181.658 184.023 167.593
ltibia -1.79313
lfoot -6.62222 0.477199
ltoes 31.4369
